<svg width="74" height="30" viewBox="0 0 74 30" fill="none" xmlns="http://www.w3.org/2000/svg">
<path d="M8.25 29H0.170455V2.81818H8.60795C11.1477 2.81818 13.321 3.34233 15.1278 4.39062C16.9347 5.4304 18.3196 6.92614 19.2827 8.87784C20.2457 10.821 20.7273 13.1477 20.7273 15.858C20.7273 18.5852 20.2415 20.9332 19.2699 22.902C18.2983 24.8622 16.8835 26.3707 15.0256 27.4276C13.1676 28.4759 10.9091 29 8.25 29ZM3.34091 26.1875H8.04545C10.2102 26.1875 12.0043 25.7699 13.4276 24.9347C14.8509 24.0994 15.9119 22.9105 16.6108 21.3679C17.3097 19.8253 17.6591 17.9886 17.6591 15.858C17.6591 13.7443 17.3139 11.9247 16.6236 10.3991C15.9332 8.86506 14.902 7.68892 13.5298 6.87074C12.1577 6.04403 10.4489 5.63068 8.40341 5.63068H3.34091V26.1875ZM33.6136 29.4091C31.8409 29.4091 30.2855 28.9872 28.9474 28.1435C27.6179 27.2997 26.5781 26.1193 25.8281 24.6023C25.0866 23.0852 24.7159 21.3125 24.7159 19.2841C24.7159 17.2386 25.0866 15.4531 25.8281 13.9276C26.5781 12.402 27.6179 11.2173 28.9474 10.3736C30.2855 9.52983 31.8409 9.10795 33.6136 9.10795C35.3864 9.10795 36.9375 9.52983 38.267 10.3736C39.6051 11.2173 40.6449 12.402 41.3864 13.9276C42.1364 15.4531 42.5114 17.2386 42.5114 19.2841C42.5114 21.3125 42.1364 23.0852 41.3864 24.6023C40.6449 26.1193 39.6051 27.2997 38.267 28.1435C36.9375 28.9872 35.3864 29.4091 33.6136 29.4091ZM33.6136 26.6989C34.9602 26.6989 36.0682 26.3537 36.9375 25.6634C37.8068 24.973 38.4503 24.0653 38.8679 22.9403C39.2855 21.8153 39.4943 20.5966 39.4943 19.2841C39.4943 17.9716 39.2855 16.7486 38.8679 15.6151C38.4503 14.4815 37.8068 13.5653 36.9375 12.8665C36.0682 12.1676 34.9602 11.8182 33.6136 11.8182C32.267 11.8182 31.1591 12.1676 30.2898 12.8665C29.4205 13.5653 28.777 14.4815 28.3594 15.6151C27.9418 16.7486 27.733 17.9716 27.733 19.2841C27.733 20.5966 27.9418 21.8153 28.3594 22.9403C28.777 24.0653 29.4205 24.973 30.2898 25.6634C31.1591 26.3537 32.267 26.6989 33.6136 26.6989ZM46.043 29V2.81818H53.1509V23.2727H63.7362V29H46.043ZM66.7116 29V9.36364H73.7685V29H66.7116ZM70.2401 7.31818C69.2855 7.31818 68.4673 7.00284 67.7855 6.37216C67.1037 5.74148 66.7628 4.98295 66.7628 4.09659C66.7628 3.21023 67.1037 2.4517 67.7855 1.82102C68.4673 1.19034 69.2855 0.875 70.2401 0.875C71.2031 0.875 72.0213 1.19034 72.6946 1.82102C73.3764 2.4517 73.7173 3.21023 73.7173 4.09659C73.7173 4.98295 73.3764 5.74148 72.6946 6.37216C72.0213 7.00284 71.2031 7.31818 70.2401 7.31818Z" fill="white"/>
</svg>
